<?xml version="1.0" encoding="UTF-8"?><svg xmlns="http://www.w3.org/2000/svg" width="140" height="140" viewBox="0 0 140 140" role="img" aria-label="二维码"><title>公开下载页二维码</title><rect width="140" height="140" fill="#ffffff" rx="6"/><rect x="10" y="10" width="40" height="40" fill="#202226" rx="2"/><rect x="15.714285714285715" y="15.714285714285715" width="28.571428571428573" height="28.571428571428573" fill="#ffffff" rx="1"/><rect x="21.42857142857143" y="21.42857142857143" width="17.142857142857142" height="17.142857142857142" fill="#202226" rx="1"/><rect x="90" y="10" width="40" height="40" fill="#202226" rx="2"/><rect x="95.71428571428571" y="15.714285714285715" width="28.571428571428573" height="28.571428571428573" fill="#ffffff" rx="1"/><rect x="101.42857142857143" y="21.42857142857143" width="17.142857142857142" height="17.142857142857142" fill="#202226" rx="1"/><rect x="10" y="90" width="40" height="40" fill="#202226" rx="2"/><rect x="15.714285714285715" y="95.71428571428571" width="28.571428571428573" height="28.571428571428573" fill="#ffffff" rx="1"/><rect x="21.42857142857143" y="101.42857142857143" width="17.142857142857142" height="17.142857142857142" fill="#202226" rx="1"/><rect x="56.214285714285715" y="56.214285714285715" width="4.714285714285714" height="4.714285714285714" fill="#202226" rx="1"/><rect x="73.35714285714286" y="56.214285714285715" width="4.714285714285714" height="4.714285714285714" fill="#202226" rx="1"/><rect x="79.07142857142857" y="56.214285714285715" width="4.714285714285714" height="4.714285714285714" fill="#202226" rx="1"/><rect x="90.5" y="56.214285714285715" width="4.714285714285714" height="4.714285714285714" fill="#202226" rx="1"/><rect x="101.92857142857143" y="56.214285714285715" width="4.714285714285714" height="4.714285714285714" fill="#202226" rx="1"/><rect x="61.92857142857143" y="61.92857142857143" width="4.714285714285714" height="4.714285714285714" fill="#202226" rx="1"/><rect x="67.64285714285714" y="61.92857142857143" width="4.714285714285714" height="4.714285714285714" fill="#202226" rx="1"/><rect x="84.78571428571429" y="61.92857142857143" width="4.714285714285714" height="4.714285714285714" fill="#202226" rx="1"/><rect x="96.21428571428572" y="61.92857142857143" width="4.714285714285714" height="4.714285714285714" fill="#202226" rx="1"/><rect x="56.214285714285715" y="67.64285714285714" width="4.714285714285714" height="4.714285714285714" fill="#202226" rx="1"/><rect x="67.64285714285714" y="67.64285714285714" width="4.714285714285714" height="4.714285714285714" fill="#202226" rx="1"/><rect x="73.35714285714286" y="67.64285714285714" width="4.714285714285714" height="4.714285714285714" fill="#202226" rx="1"/><rect x="90.5" y="67.64285714285714" width="4.714285714285714" height="4.714285714285714" fill="#202226" rx="1"/><rect x="101.92857142857143" y="67.64285714285714" width="4.714285714285714" height="4.714285714285714" fill="#202226" rx="1"/><rect x="61.92857142857143" y="73.35714285714286" width="4.714285714285714" height="4.714285714285714" fill="#202226" rx="1"/><rect x="79.07142857142857" y="73.35714285714286" width="4.714285714285714" height="4.714285714285714" fill="#202226" rx="1"/><rect x="84.78571428571429" y="73.35714285714286" width="4.714285714285714" height="4.714285714285714" fill="#202226" rx="1"/><rect x="96.21428571428572" y="73.35714285714286" width="4.714285714285714" height="4.714285714285714" fill="#202226" rx="1"/><rect x="56.214285714285715" y="79.07142857142857" width="4.714285714285714" height="4.714285714285714" fill="#202226" rx="1"/><rect x="61.92857142857143" y="79.07142857142857" width="4.714285714285714" height="4.714285714285714" fill="#202226" rx="1"/><rect x="73.35714285714286" y="79.07142857142857" width="4.714285714285714" height="4.714285714285714" fill="#202226" rx="1"/><rect x="84.78571428571429" y="79.07142857142857" width="4.714285714285714" height="4.714285714285714" fill="#202226" rx="1"/><rect x="90.5" y="79.07142857142857" width="4.714285714285714" height="4.714285714285714" fill="#202226" rx="1"/><rect x="101.92857142857143" y="79.07142857142857" width="4.714285714285714" height="4.714285714285714" fill="#202226" rx="1"/><rect x="67.64285714285714" y="84.78571428571429" width="4.714285714285714" height="4.714285714285714" fill="#202226" rx="1"/><rect x="79.07142857142857" y="84.78571428571429" width="4.714285714285714" height="4.714285714285714" fill="#202226" rx="1"/><rect x="96.21428571428572" y="84.78571428571429" width="4.714285714285714" height="4.714285714285714" fill="#202226" rx="1"/><rect x="56.214285714285715" y="90.5" width="4.714285714285714" height="4.714285714285714" fill="#202226" rx="1"/><rect x="67.64285714285714" y="90.5" width="4.714285714285714" height="4.714285714285714" fill="#202226" rx="1"/><rect x="73.35714285714286" y="90.5" width="4.714285714285714" height="4.714285714285714" fill="#202226" rx="1"/><rect x="84.78571428571429" y="90.5" width="4.714285714285714" height="4.714285714285714" fill="#202226" rx="1"/><rect x="101.92857142857143" y="90.5" width="4.714285714285714" height="4.714285714285714" fill="#202226" rx="1"/><rect x="61.92857142857143" y="96.21428571428572" width="4.714285714285714" height="4.714285714285714" fill="#202226" rx="1"/><rect x="79.07142857142857" y="96.21428571428572" width="4.714285714285714" height="4.714285714285714" fill="#202226" rx="1"/><rect x="90.5" y="96.21428571428572" width="4.714285714285714" height="4.714285714285714" fill="#202226" rx="1"/><rect x="96.21428571428572" y="96.21428571428572" width="4.714285714285714" height="4.714285714285714" fill="#202226" rx="1"/><rect x="56.214285714285715" y="101.92857142857143" width="4.714285714285714" height="4.714285714285714" fill="#202226" rx="1"/><rect x="73.35714285714286" y="101.92857142857143" width="4.714285714285714" height="4.714285714285714" fill="#202226" rx="1"/><rect x="79.07142857142857" y="101.92857142857143" width="4.714285714285714" height="4.714285714285714" fill="#202226" rx="1"/><rect x="84.78571428571429" y="101.92857142857143" width="4.714285714285714" height="4.714285714285714" fill="#202226" rx="1"/><rect x="101.92857142857143" y="101.92857142857143" width="4.714285714285714" height="4.714285714285714" fill="#202226" rx="1"/></svg>